# Blender v2.78 (sub 0) OBJ File: 'mondoNovoPrimitive.blend'
# www.blender.org
mtllib mondoNovoPrimitive.mtl
o Cube.001
v 2.824201 -1.689199 -1.412100
v 2.824201 -1.689199 1.412100
v -2.824201 -1.689199 1.412100
v -2.824200 -1.689199 -1.412101
v 2.824202 2.076401 -1.412100
v 2.824199 2.076401 1.412101
v -2.824202 2.076401 1.412100
v -2.824201 2.076401 -1.412100
v 3.000000 -1.806399 -1.500000
v 3.000000 -1.806399 1.500000
v -3.000000 -1.806399 1.500000
v -2.999999 -1.806399 -1.500000
v 3.000001 2.193601 -1.499999
v 2.999998 2.193601 1.500001
v -3.000001 2.193601 1.500000
v -3.000000 2.193601 -1.500000
v 2.999999 0.229063 0.192590
v 2.824200 0.229063 0.192590
v 3.000000 0.507395 -0.328133
v 2.824200 0.507395 -0.328133
v 3.000000 0.572700 -0.321701
v 2.824200 0.572700 -0.321701
v 3.000000 0.635496 -0.302652
v 2.824200 0.635496 -0.302652
v 2.999999 0.816661 0.134716
v 2.824200 0.816661 0.134716
v 2.999999 0.785727 0.192590
v 2.824200 0.785727 0.192590
v 2.999999 0.835710 0.071920
v 2.824200 0.835710 0.071920
v 2.999999 0.744097 0.243316
v 2.824200 0.744097 0.243316
v 2.999999 0.572701 0.334929
v 2.824200 0.572701 0.334929
v 2.999999 0.507395 0.341362
v 2.824200 0.507395 0.341362
v 2.999999 0.635497 0.315880
v 2.824199 0.635497 0.315880
v 2.999999 0.179080 -0.058692
v 2.824200 0.179080 -0.058692
v 3.000000 0.321419 -0.271718
v 2.824200 0.321419 -0.271718
v 2.999999 0.172648 0.006614
v 2.824200 0.172648 0.006614
v 2.999999 0.198129 -0.121488
v 2.824200 0.198129 -0.121488
v 2.999999 0.442089 0.334929
v 2.824200 0.442089 0.334929
v 3.000000 0.744096 -0.230088
v 2.824200 0.744096 -0.230088
v 3.000000 0.693370 -0.271718
v 2.824200 0.693370 -0.271718
v 2.999999 0.785727 -0.179361
v 2.824200 0.785727 -0.179361
v 2.999999 0.179080 0.071920
v 2.824200 0.179080 0.071920
v 2.999999 0.321419 0.284947
v 2.824200 0.321419 0.284947
v 2.999999 0.270693 0.243316
v 2.824200 0.270693 0.243316
v 2.999999 0.198129 0.134717
v 2.824200 0.198129 0.134717
v 2.999999 0.842142 0.006614
v 2.824200 0.842142 0.006614
v 2.999999 0.693370 0.284946
v 2.824200 0.693370 0.284946
v 2.999999 0.835710 -0.058692
v 2.824200 0.835710 -0.058692
v 2.999999 0.270693 -0.230088
v 2.824200 0.270693 -0.230088
v 2.999999 0.379293 0.315880
v 2.824200 0.379293 0.315880
v 2.999999 0.229063 -0.179361
v 2.824200 0.229063 -0.179361
v 2.999999 0.816661 -0.121488
v 2.824200 0.816661 -0.121488
v 3.000000 0.379293 -0.302652
v 2.824200 0.379293 -0.302652
v 3.000000 0.442089 -0.321701
v 2.824200 0.442089 -0.321701
v 3.170610 -1.920139 -1.585305
v 3.170610 -1.920139 1.585305
v -3.170611 -1.920139 1.585305
v -3.170609 -1.920139 -1.585306
v 3.170612 2.307341 -1.585304
v 3.170609 2.307341 1.585306
v -3.170611 2.307341 1.585305
v -3.170610 2.307341 -1.585305
v 2.653591 -1.575459 -1.326795
v 2.653591 -1.575459 1.326795
v -2.653591 -1.575459 1.326795
v -2.653589 -1.575459 -1.326796
v 2.653592 1.962661 -1.326795
v 2.653589 1.962661 1.326796
v -2.653592 1.962661 1.326795
v -2.653590 1.962661 -1.326795
v 2.586937 -0.030052 0.290454
v 3.237262 -0.030052 0.290454
v 2.557438 0.507395 -0.530690
v 3.266761 0.507395 -0.530690
v 2.592193 0.647397 -0.534494
v 3.232007 0.647397 -0.534494
v 2.591003 0.776260 -0.495092
v 3.233197 0.776260 -0.495092
v 2.586113 1.093097 0.199409
v 3.238086 1.093097 0.199409
v 2.586937 1.044841 0.290453
v 3.237262 1.044841 0.290453
v 2.585637 1.121790 0.104065
v 3.238562 1.121790 0.104065
v 2.588109 0.976318 0.374644
v 3.236090 0.976318 0.374644
v 2.592192 0.647398 0.547723
v 3.232007 0.647398 0.547723
v 2.557438 0.507395 0.543919
v 3.266761 0.507395 0.543919
v 2.591002 0.776261 0.508321
v 3.233196 0.776261 0.508321
v 2.585637 -0.107001 -0.090837
v 3.238562 -0.107001 -0.090837
v 2.589520 0.128005 -0.435520
v 3.234680 0.128005 -0.435520
v 2.585472 -0.116534 0.006614
v 3.238727 -0.116534 0.006614
v 2.586113 -0.078308 -0.186181
v 3.238086 -0.078308 -0.186181
v 2.592192 0.367392 0.547723
v 3.232006 0.367392 0.547723
v 2.588109 0.976318 -0.361415
v 3.236090 0.976318 -0.361415
v 2.589520 0.886784 -0.435520
v 3.234680 0.886784 -0.435520
v 2.586937 1.044841 -0.277225
v 3.237262 1.044841 -0.277225
v 2.585637 -0.107001 0.104065
v 3.238562 -0.107001 0.104065
v 2.589519 0.128005 0.448748
v 3.234680 0.128005 0.448748
v 2.588109 0.038471 0.374644
v 3.236090 0.038471 0.374644
v 2.586113 -0.078308 0.199410
v 3.238086 -0.078308 0.199410
v 2.585473 1.131323 0.006614
v 3.238727 1.131323 0.006614
v 2.589519 0.886785 0.448748
v 3.234680 0.886785 0.448748
v 2.585637 1.121790 -0.090837
v 3.238562 1.121790 -0.090837
v 2.588109 0.038471 -0.361415
v 3.236090 0.038471 -0.361415
v 2.591002 0.238529 0.508321
v 3.233197 0.238529 0.508321
v 2.586937 -0.030052 -0.277225
v 3.237262 -0.030052 -0.277225
v 2.586113 1.093097 -0.186181
v 3.238086 1.093097 -0.186181
v 2.591003 0.238529 -0.495092
v 3.233197 0.238529 -0.495092
v 2.592193 0.367392 -0.534494
v 3.232007 0.367392 -0.534494
vn 0.0000 1.0000 -0.0000
vn 0.0000 -1.0000 0.0000
vn -1.0000 -0.0000 -0.0000
vn 0.0000 0.0000 -1.0000
vn 1.0000 0.0000 0.0000
vn -0.0000 -0.0000 1.0000
vn 0.0000 0.9952 -0.0980
vn 0.0000 0.7730 -0.6344
vn 0.0000 0.8819 -0.4714
vn 0.0000 -0.9952 0.0980
vn 0.0000 0.9569 0.2903
vn -0.0000 0.9952 0.0980
vn 0.0000 0.7730 0.6344
vn 0.0000 -0.0980 0.9952
vn -0.0000 -0.0980 -0.9952
vn -0.0000 -0.8819 0.4714
vn 0.0000 0.0980 -0.9952
vn 0.0000 -0.2903 0.9569
vn 0.0000 0.6344 0.7730
vn -0.0000 -0.4714 -0.8819
vn 0.0000 0.4714 0.8819
vn 0.0000 0.6344 -0.7730
vn 0.0000 -0.6344 0.7730
vn 0.0000 -0.9569 0.2903
vn 0.0000 0.4714 -0.8819
vn 0.0000 -0.6344 -0.7730
vn 0.0000 -0.8819 -0.4714
vn 0.0000 0.0980 0.9952
vn 0.0000 0.8819 0.4714
vn 0.0000 -0.9952 -0.0980
vn 0.0000 0.9569 -0.2903
vn -0.0000 -0.2903 -0.9569
vn 0.0000 -0.4714 0.8819
vn 0.0000 0.2903 0.9569
vn 0.0000 0.2903 -0.9569
vn 0.0000 -0.9569 -0.2903
vn -0.0000 -0.7730 0.6344
vn 0.0000 -0.7730 -0.6344
vn 0.9998 -0.0190 0.0000
vn -0.9997 -0.0239 -0.0000
vn 0.0000 0.9952 -0.0974
vn 0.0000 0.7756 -0.6313
vn 0.0000 0.8836 -0.4683
vn 0.0000 -0.9952 0.0974
vn 0.0000 0.9576 0.2882
vn 0.0000 0.9952 0.0974
vn 0.0000 0.7756 0.6313
vn 0.0000 0.0272 0.9996
vn 0.0000 0.0272 -0.9996
vn 0.0000 -0.8836 0.4683
vn 0.0000 -0.0272 -0.9996
vn 0.0000 -0.2924 0.9563
vn 0.0000 0.6376 0.7704
vn 0.0000 -0.4745 -0.8803
vn 0.0000 0.4745 0.8803
vn 0.0000 0.6376 -0.7704
vn 0.0000 -0.6376 0.7704
vn 0.0000 -0.9576 0.2882
vn 0.0000 0.4745 -0.8803
vn 0.0000 -0.6376 -0.7704
vn -0.0000 -0.8836 -0.4683
vn 0.0000 -0.0272 0.9996
vn 0.0000 0.8836 0.4683
vn 0.0000 -0.9952 -0.0974
vn 0.0000 0.9576 -0.2882
vn 0.0000 -0.2924 -0.9563
vn 0.0000 -0.4745 0.8803
vn 0.0000 0.2924 0.9563
vn 0.0000 0.2924 -0.9563
vn -0.0000 -0.9576 -0.2882
vn 0.0000 -0.7756 0.6313
vn 0.0000 -0.7756 -0.6313
vn -0.9977 0.0674 -0.0000
vn 0.9986 0.0523 0.0000
usemtl mondoMaterial
s off
f 1//1 4//1 3//1 2//1
f 5//2 6//2 7//2 8//2
f 1//3 2//3 6//3 36//3 48//3 72//3 58//3 60//3 18//3 62//3 56//3 44//3 40//3 46//3 74//3 70//3 42//3 78//3 80//3 20//3 5//3
f 2//4 3//4 7//4 6//4
f 3//5 4//5 8//5 7//5
f 5//6 8//6 4//6 1//6
f 9//2 10//2 11//2 12//2
f 13//1 16//1 15//1 14//1
f 9//5 13//5 19//5 79//5 77//5 41//5 69//5 73//5 45//5 39//5 43//5 55//5 61//5 17//5 59//5 57//5 71//5 47//5 35//5 14//5 10//5
f 10//6 14//6 15//6 11//6
f 11//3 15//3 16//3 12//3
f 13//4 9//4 12//4 16//4
f 56//7 55//7 43//7 44//7
f 60//8 59//8 17//8 18//8
f 18//9 17//9 61//9 62//9
f 68//10 67//10 63//10 64//10
f 40//11 39//11 45//11 46//11
f 44//12 43//12 39//12 40//12
f 74//13 73//13 69//13 70//13
f 20//14 19//14 21//14 22//14
f 34//15 33//15 35//15 36//15
f 54//16 53//16 75//16 76//16
f 36//17 35//17 47//17 48//17
f 22//18 21//18 23//18 24//18
f 70//19 69//19 41//19 42//19
f 66//20 65//20 37//20 38//20
f 42//21 41//21 77//21 78//21
f 58//22 57//22 59//22 60//22
f 52//23 51//23 49//23 50//23
f 76//24 75//24 67//24 68//24
f 72//25 71//25 57//25 58//25
f 32//26 31//26 65//26 66//26
f 26//27 25//27 27//27 28//27
f 80//28 79//28 19//28 20//28
f 46//29 45//29 73//29 74//29
f 64//30 63//30 29//30 30//30
f 62//31 61//31 55//31 56//31
f 38//32 37//32 33//32 34//32
f 24//33 23//33 51//33 52//33
f 78//34 77//34 79//34 80//34
f 48//35 47//35 71//35 72//35
f 30//36 29//36 25//36 26//36
f 50//37 49//37 53//37 54//37
f 28//38 27//38 31//38 32//38
f 14//5 35//5 33//5 37//5 65//5 31//5 27//5 25//5 29//5 63//5 67//5 75//5 53//5 49//5 51//5 23//5 21//5 19//5 13//5
f 5//3 20//3 22//3 24//3 52//3 50//3 54//3 76//3 68//3 64//3 30//3 26//3 28//3 32//3 66//3 38//3 34//3 36//3 6//3
f 81//2 82//2 83//2 84//2
f 85//1 88//1 87//1 86//1
f 81//39 85//39 100//39 160//39 158//39 122//39 150//39 154//39 126//39 120//39 124//39 136//39 142//39 98//39 140//39 138//39 152//39 128//39 116//39 86//39 82//39
f 82//6 86//6 87//6 83//6
f 83//3 87//3 88//3 84//3
f 85//4 81//4 84//4 88//4
f 89//1 92//1 91//1 90//1
f 93//2 94//2 95//2 96//2
f 89//40 90//40 94//40 115//40 127//40 151//40 137//40 139//40 97//40 141//40 135//40 123//40 119//40 125//40 153//40 149//40 121//40 157//40 159//40 99//40 93//40
f 90//4 91//4 95//4 94//4
f 91//5 92//5 96//5 95//5
f 93//6 96//6 92//6 89//6
f 136//41 124//41 123//41 135//41
f 140//42 98//42 97//42 139//42
f 98//43 142//43 141//43 97//43
f 148//44 144//44 143//44 147//44
f 120//45 126//45 125//45 119//45
f 124//46 120//46 119//46 123//46
f 154//47 150//47 149//47 153//47
f 100//48 102//48 101//48 99//48
f 114//49 116//49 115//49 113//49
f 134//50 156//50 155//50 133//50
f 116//51 128//51 127//51 115//51
f 102//52 104//52 103//52 101//52
f 150//53 122//53 121//53 149//53
f 146//54 118//54 117//54 145//54
f 122//55 158//55 157//55 121//55
f 138//56 140//56 139//56 137//56
f 132//57 130//57 129//57 131//57
f 156//58 148//58 147//58 155//58
f 152//59 138//59 137//59 151//59
f 112//60 146//60 145//60 111//60
f 106//61 108//61 107//61 105//61
f 160//62 100//62 99//62 159//62
f 126//63 154//63 153//63 125//63
f 144//64 110//64 109//64 143//64
f 142//65 136//65 135//65 141//65
f 118//66 114//66 113//66 117//66
f 104//67 132//67 131//67 103//67
f 158//68 160//68 159//68 157//68
f 128//69 152//69 151//69 127//69
f 110//70 106//70 105//70 109//70
f 130//71 134//71 133//71 129//71
f 108//72 112//72 111//72 107//72
f 94//73 93//73 99//73 101//73 103//73 131//73 129//73 133//73 155//73 147//73 143//73 109//73 105//73 107//73 111//73 145//73 117//73 113//73 115//73
f 85//74 86//74 116//74 114//74 118//74 146//74 112//74 108//74 106//74 110//74 144//74 148//74 156//74 134//74 130//74 132//74 104//74 102//74 100//74
